<svg xmlns="http://www.w3.org/2000/svg" viewBox="0 0 64 64">
  <rect width="64" height="64" rx="14" fill="#0b3d1f"/>
  <rect x="4" y="4" width="56" height="56" rx="10" fill="none" stroke="#d8b24a" stroke-width="2.5"/>
  <path d="M24 18c-6.3 0-11 4.8-11 12.2 0 10.1 6.3 15.8 16.1 15.8 3.7 0 6.8-.6 9.5-1.8v-8.1c-2.6 1.7-5.4 2.5-8.6 2.5-5.5 0-8.9-3.1-8.9-8.4 0-5.3 3.3-8.7 8.7-8.7 3.2 0 6 .9 8.7 2.8v-8.2c-2.5-1.3-5.7-2.1-9.5-2.1z" fill="#f0dfae"/>
  <path d="M41 18h8.5c8.1 0 12.5 4.6 12.5 11.5 0 5.7-2.9 9.8-8.2 11.2L62 46h-9.8l-6.7-5v5H41V18zm4.5 7.1v9.3h3c3 0 5-1.6 5-4.7 0-3-2-4.6-5-4.6h-3z" fill="#d8b24a"/>
</svg>
